<?xml version="1.0" encoding="UTF-8"?><svg xmlns="http://www.w3.org/2000/svg" xmlns:xlink="http://www.w3.org/1999/xlink" fill-opacity="1" color-rendering="auto" color-interpolation="auto" stroke="black" text-rendering="auto" stroke-linecap="square" width="292" stroke-miterlimit="10" stroke-opacity="1" shape-rendering="auto" fill="black" stroke-dasharray="none" font-weight="normal" stroke-width="1" height="97" font-family="'Dialog'" font-style="normal" stroke-linejoin="miter" font-size="12" stroke-dashoffset="0" image-rendering="auto">
  <!--Generated by ySVG 2.5-->
  <defs id="genericDefs"/>
  <g>
    <g fill="white" text-rendering="geometricPrecision" shape-rendering="geometricPrecision" transform="translate(-306,-259)" stroke="white">
      <rect x="306" width="292" height="97" y="259" clip-path="url(#clipPath2)" stroke="none"/>
    </g>
    <g text-rendering="geometricPrecision" stroke-miterlimit="1.45" shape-rendering="geometricPrecision" font-family="sans-serif" transform="matrix(1,0,0,1,-306,-259)" stroke-linecap="butt">
      <text x="318.4734" xml:space="preserve" y="319.1543" clip-path="url(#clipPath2)" stroke="none">C</text>
      <circle fill="none" r="15" clip-path="url(#clipPath2)" cx="322.6629" cy="315"/>
      <text x="399.462" xml:space="preserve" y="319.1543" clip-path="url(#clipPath2)" stroke="none">R</text>
      <circle fill="none" r="15" clip-path="url(#clipPath2)" cx="403.631" cy="315"/>
      <text x="484.9545" xml:space="preserve" y="344.1543" clip-path="url(#clipPath2)" stroke="none">P2</text>
      <circle fill="none" r="15" clip-path="url(#clipPath2)" cx="492.3901" cy="340"/>
      <text x="573.7136" xml:space="preserve" y="289.6543" clip-path="url(#clipPath2)" stroke="none">P1</text>
      <circle fill="none" r="15" clip-path="url(#clipPath2)" cx="581.1492" cy="285.5"/>
    </g>
    <g shape-rendering="geometricPrecision" text-rendering="geometricPrecision" transform="matrix(0.1998,0,0,0.1984,156.3901,1)">
      <g clip-path="url(#clipPath3)">
        <svg xmlns:svg="http://www.w3.org/2000/svg" xmlns:sodipodi="http://sodipodi.sourceforge.net/DTD/sodipodi-0.dtd" xmlns:inkscape="http://www.inkscape.org/namespaces/inkscape" xmlns:dc="http://purl.org/dc/elements/1.1/" xmlns:cc="http://creativecommons.org/ns#" xmlns:rdf="http://www.w3.org/1999/02/22-rdf-syntax-ns#" opacity="1" writing-mode="lr-tb" stop-color="rgb(0, 0, 0)" shape-rendering="auto" glyph-orientation-horizontal="0deg" color-profile="auto" lighting-color="rgb(255, 255, 255)" color="rgb(0, 0, 0)" font-weight="400" alignment-baseline="auto" font-style="normal" version="1.0" color-interpolation-filters="linearrgb" text-anchor="start" stroke-linecap="butt" color-interpolation="srgb" font-variant="normal" word-spacing="normal" fill-opacity="1" text-rendering="auto" clip-path="none" text-decoration="none" letter-spacing="normal" glyph-orientation-vertical="auto" display="inline" font-size-adjust="none" overflow="hidden" fill="rgb(0, 0, 0)" font-stretch="normal" stroke-dasharray="none" inkscape:version="0.46" id="svg1.svg4956" stroke-miterlimit="4" stop-opacity="1" color-rendering="auto" font-size="12" sodipodi:docbase="/home/rejon/Documents/projects/create-project/logo" pointer-events="visiblepainted" mask="none" direction="ltr" baseline-shift="baseline" sodipodi:docname="cloud_jon_phillips_01.svg" enable-background="accumulate" fill-rule="nonzero" image-rendering="auto" stroke-dashoffset="0" inkscape:output_extension="org.inkscape.output.svg.inkscape" marker-end="none" width="300.23886" clip="auto" cursor="auto" stroke="none" filter="none" visibility="visible" kerning="auto" stroke-width="1" font-family="&quot;Arial&quot;,&quot;Helvetica&quot;,sans-serif" flood-opacity="1" clip-rule="nonzero" src="none" height="257.09433" unicode-bidi="normal" sodipodi:version="0.32" stroke-linejoin="miter" stroke-opacity="1" flood-color="rgb(0, 0, 0)" dominant-baseline="auto" marker-start="none" marker-mid="none">
  <metadata id="svg1.metadata3">
    
  </metadata>
  <defs id="svg1.defs4958">
    
  <clipPath clipPathUnits="userSpaceOnUse" id="clipPath1">
              <path d="M0 0 L292 0 L292 97 L0 97 L0 0 Z"/>
            </clipPath>
            <clipPath clipPathUnits="userSpaceOnUse" id="clipPath2">
              <path d="M306 259 L598 259 L598 356 L306 356 L306 259 Z"/>
            </clipPath>
            <clipPath clipPathUnits="userSpaceOnUse" id="clipPath3">
              <path d="M-782.573 -5.0411 L678.5895 -5.0411 L678.5895 483.9423 L-782.573 483.9423 L-782.573 -5.0411 Z"/>
            </clipPath>
          </defs>
  
  <g inkscape:groupmode="layer" id="svg1.layer1" transform="translate(-204.16628,-180.95788)" inkscape:label="Layer 1">
    <path style="opacity:1;fill:#ffffff;fill-opacity:1;stroke:#000000;stroke-width:14.79046059;stroke-linecap:butt;stroke-linejoin:round;stroke-miterlimit:4;stroke-dasharray:none;stroke-dashoffset:0;stroke-opacity:1" d="M 410.67959,194.3815 C 392.37515,189.47681 373.85117,195.08975 361.06312,207.28351 C 354.38189,199.25271 345.33513,193.05458 334.48394,190.1472 C 306.55725,182.66441 277.78779,199.27435 270.3048,227.20111 C 269.75493,229.25318 269.61017,231.31674 269.31528,233.36915 C 244.16592,230.75487 220.10196,246.49902 213.35064,271.69554 C 206.66103,296.6615 219.28468,322.19 241.97368,332.68633 C 240.74035,335.36078 239.59041,338.11603 238.80258,341.05587 C 231.31972,368.98263 247.94629,397.69032 275.87305,405.17311 C 289.55164,408.83877 303.37499,406.6863 314.85002,400.29682 C 321.17421,413.82629 332.96537,424.71545 348.50905,428.8801 C 370.68656,434.82265 393.19111,425.40916 405.34082,407.36649 C 410.26235,410.85061 415.73285,413.73264 421.89508,415.3841 C 449.82177,422.86689 478.52936,406.24005 486.01235,378.31329 C 489.77522,364.2703 487.44688,350.05895 480.65432,338.41184 C 487.37673,332.00174 492.63872,323.88203 495.21692,314.25995 C 502.69988,286.33286 486.07327,257.62517 458.14659,250.14238 C 455.20678,249.35502 452.26201,248.91147 449.32995,248.64237 C 451.06775,224.11827 435.30606,200.98024 410.67959,194.3815 z" id="svg1.path4952"/>
  </g>
</svg>
      </g>
    </g>
    <g text-rendering="geometricPrecision" stroke-miterlimit="1.45" shape-rendering="geometricPrecision" transform="matrix(1,0,0,1,-306,-259)" stroke-linecap="butt">
      <path fill="none" d="M337.6629 315 L388.631 315" clip-path="url(#clipPath2)"/>
      <path fill="none" d="M416.3853 322.8947 L444.0197 340 L477.3901 340" clip-path="url(#clipPath2)"/>
      <path fill="none" d="M415.7167 306.1154 L443.7598 285.5 L462.4236 285.5" clip-path="url(#clipPath2)"/>
      <path fill="none" d="M522.4243 285.5 L566.1492 285.5" clip-path="url(#clipPath2)"/>
    </g>
  </g>
</svg>
